<svg width="32" height="32" viewBox="0 0 32 32" fill="none" xmlns="http://www.w3.org/2000/svg">
<g clip-path="url(#clip0_6501_24760)">
<circle cx="7" cy="7" r="7" fill="white"/>
<path d="M7.07308 1.16699V5.46145C7.07308 5.47968 7.05485 5.49791 7.03662 5.49791C6.90901 5.55365 6.79963 5.60886 6.67202 5.66407C6.50795 5.73751 6.32565 5.81147 6.16158 5.90366L5.55999 6.17972L5.06778 6.40108L4.46619 6.67766C4.30212 6.75162 4.13805 6.82506 3.95575 6.91725C3.82814 6.97246 3.6823 7.04642 3.55469 7.10163C3.53646 7.10163 3.53646 7.11986 3.51823 7.10163H3.5C3.55469 7.00944 3.60938 6.93548 3.66407 6.84381C3.95575 6.34587 4.26566 5.84845 4.55734 5.35051C4.86725 4.81663 5.19539 4.28171 5.5053 3.74732C5.79698 3.2499 6.08866 2.75248 6.38034 2.27329C6.5991 1.904 6.81786 1.55451 7.01839 1.18522C7.05485 1.18522 7.05485 1.16699 7.07308 1.16699C7.07308 1.16699 7.05485 1.16699 7.07308 1.16699Z" fill="#8C8C8C"/>
<path d="M10.6098 7.10144C10.3363 7.28582 10.0446 7.45145 9.7712 7.61709C8.87793 8.15201 8.00289 8.66818 7.10962 9.20257C7.09139 9.20257 7.09139 9.2208 7.07316 9.2208C7.05493 9.2208 7.05493 9.20257 7.05493 9.20257V5.49772C7.05493 5.47949 7.07316 5.47949 7.09139 5.47949C7.16431 5.51595 7.23723 5.55345 7.32838 5.58991C7.54714 5.70086 7.78413 5.79305 8.00289 5.90347C8.20342 5.99566 8.38572 6.08785 8.58625 6.16129C8.78678 6.25348 8.96908 6.34568 9.16961 6.43787C9.33368 6.51183 9.51598 6.58527 9.68005 6.67746C9.84412 6.75142 10.0264 6.82486 10.1905 6.91706C10.3181 6.97227 10.4457 7.04623 10.5915 7.10144C10.5915 7.08321 10.5915 7.10144 10.6098 7.10144Z" fill="#141414"/>
<path d="M7.07316 12.8332C7.05493 12.8332 7.07316 12.8332 7.07316 12.8332C7.05493 12.8332 7.05493 12.8332 7.0367 12.8145C6.6721 12.2988 6.32573 11.8009 5.96113 11.2847L4.86733 9.73674C4.52096 9.23932 4.15636 8.7419 3.80999 8.22521L3.53654 7.83822C3.53654 7.81999 3.51831 7.81999 3.51831 7.80176C3.53654 7.80176 3.53654 7.81999 3.55477 7.81999C4.04698 8.11479 4.55742 8.4096 5.04963 8.7044C5.61476 9.05494 6.19812 9.38672 6.76325 9.73674C6.8544 9.79195 6.96378 9.84716 7.05493 9.90237C7.07316 9.90237 7.07316 9.92112 7.07316 9.93935V12.8332Z" fill="#8C8C8C"/>
<path d="M3.5 6.90841C3.5 6.89018 3.5 6.89018 3.5 6.90841C3.6823 6.81622 3.8646 6.74278 4.0469 6.65058L4.75787 6.3188C4.94017 6.22661 5.12247 6.15317 5.30477 6.06097C5.55999 5.9318 5.83344 5.82138 6.08866 5.69221C6.27096 5.61825 6.45326 5.52605 6.63556 5.45261C6.76317 5.3974 6.89078 5.34219 7.01839 5.26823C7.03662 5.26823 7.03662 5.25 7.05485 5.25V9.00954C7.03662 9.02829 7.03662 9.00954 7.01839 9.00954C6.9637 8.97308 6.90901 8.95433 6.87255 8.91735L3.53646 6.92716C3.51823 6.90841 3.5 6.90841 3.5 6.90841ZM10.555 7.59073C10.555 7.60896 10.555 7.60896 10.5368 7.62719C9.47943 9.13872 8.4221 10.6315 7.36476 12.143C7.25538 12.3086 7.146 12.4561 7.03662 12.6222V9.69134C7.27361 9.54394 7.5106 9.39654 7.74759 9.26789L10.5368 7.60896C10.5368 7.59073 10.555 7.59073 10.555 7.59073Z" fill="#3C3C3B"/>
<path d="M7.073 5.47994V1.18652L10.5732 7.0472C10.5914 7.06543 10.6096 7.08366 10.6096 7.10241C10.5367 7.06595 10.4638 7.02845 10.3726 6.99199C10.2815 6.95501 10.1903 6.8998 10.0992 6.86282C10.0445 6.84459 9.9898 6.80761 9.91688 6.78886C9.82573 6.7524 9.71635 6.69667 9.6252 6.66021C9.57051 6.64146 9.51582 6.605 9.46113 6.58624L9.0783 6.42061C9.00538 6.38363 8.95069 6.3654 8.87777 6.32842C8.78662 6.29144 8.69547 6.23623 8.60432 6.19925C8.54963 6.18102 8.49494 6.14404 8.44025 6.12581L8.05742 5.95965C7.9845 5.92319 7.92981 5.90444 7.85689 5.86746C7.76574 5.831 7.67459 5.77527 7.58344 5.73829C7.52875 5.70183 7.45583 5.68308 7.40114 5.64662L7.073 5.48047V5.47994Z" fill="#343434"/>
<g clip-path="url(#clip1_6501_24760)">
<path d="M32 7C32 8.38447 31.5895 9.73785 30.8203 10.889C30.0511 12.0401 28.9579 12.9373 27.6788 13.4672C26.3997 13.997 24.9922 14.1356 23.6344 13.8655C22.2765 13.5954 21.0292 12.9287 20.0503 11.9497C19.0713 10.9708 18.4046 9.7235 18.1345 8.36563C17.8644 7.00777 18.003 5.6003 18.5328 4.32122C19.0627 3.04213 19.9599 1.94888 21.111 1.17971C22.2622 0.410543 23.6155 0 25 0C26.8565 0 28.637 0.737498 29.9498 2.05025C31.2625 3.36301 32 5.14349 32 7Z" fill="#F7931A"/>
<path fill-rule="evenodd" clip-rule="evenodd" d="M22.9752 3.19647L24.5839 3.62729L24.9434 2.28711L25.7478 2.50538L25.4023 3.7902L26.0584 3.96647L26.4045 2.66765L27.2229 2.88656L26.8704 4.19238C26.8704 4.19238 28.2067 4.48829 28.5211 5.5752C28.8354 6.66211 27.83 7.23293 27.5194 7.25456C27.5194 7.25456 28.6904 7.89665 28.2882 9.15984C27.886 10.423 26.6514 10.6489 25.3526 10.3594L25.0001 11.7136L24.1817 11.4947L24.5413 10.1615L23.8922 9.98456L23.5326 11.3273L22.7206 11.109L23.0808 9.77266L21.4294 9.3272L21.8456 8.4032C21.8456 8.4032 22.3114 8.53047 22.4877 8.57247C22.664 8.61447 22.7773 8.4312 22.8269 8.24793C22.8765 8.06465 23.6243 5.02729 23.6949 4.7772C23.7655 4.52711 23.7369 4.33175 23.4404 4.25475C23.1438 4.17775 22.7404 4.05747 22.7404 4.05747L22.9752 3.19647ZM24.5979 7.21893L24.1524 8.98993C24.1524 8.98993 26.3613 9.78729 26.6438 8.66538C26.9264 7.54347 24.5979 7.21893 24.5979 7.21893ZM24.8028 6.37893L25.24 4.7562C25.24 4.7562 27.1313 5.09475 26.8984 5.99775C26.6654 6.90075 25.5505 6.55456 24.8028 6.37893Z" fill="white"/>
</g>
<circle cx="25" cy="25" r="7" fill="#C63127"/>
<path fill-rule="evenodd" clip-rule="evenodd" d="M21.5 21.0625L24.9733 29.8125L29.8125 23.9092L28.0993 22.2785L21.5 21.0625ZM22.7313 21.7585L27.4881 22.6351L25.6417 24.1755L22.7313 21.7585ZM22.4015 22.0841L25.4346 24.603L24.9603 28.531L22.4015 22.0841ZM27.993 22.8142L29.0025 23.7751L26.2416 24.2757L27.993 22.8142ZM25.8736 24.8114L28.9309 24.2572L25.4241 28.5351L25.8736 24.8114Z" fill="white"/>
<g clip-path="url(#clip2_6501_24760)">
<path d="M7 32C10.866 32 14 28.866 14 25C14 21.134 10.866 18 7 18C3.13401 18 0 21.134 0 25C0 28.866 3.13401 32 7 32Z" fill="#26A17B"/>
<path fill-rule="evenodd" clip-rule="evenodd" d="M7.84097 25.6051V25.6043C7.79285 25.6078 7.54478 25.6226 6.99135 25.6226C6.54947 25.6226 6.23841 25.6095 6.12903 25.6043V25.6056C4.42803 25.5308 3.15841 25.2346 3.15841 24.8802C3.15841 24.5263 4.42803 24.2301 6.12903 24.154V25.3107C6.24016 25.3186 6.55866 25.3374 6.99878 25.3374C7.52685 25.3374 7.79153 25.3155 7.84097 25.3111V24.1548C9.53847 24.2305 10.805 24.5267 10.805 24.8802C10.805 25.2346 9.53847 25.5299 7.84097 25.6051ZM7.84097 24.0345V22.9994H10.2096V21.4209H3.76041V22.9994H6.12903V24.0341C4.20403 24.1225 2.75635 24.504 2.75635 24.9607C2.75635 25.4175 4.20403 25.7985 6.12903 25.8873V29.2045H7.84097V25.8865C9.76291 25.7981 11.2071 25.417 11.2071 24.9607C11.2071 24.5044 9.76291 24.1233 7.84097 24.0345Z" fill="white"/>
</g>
</g>
<defs>
<clipPath id="clip0_6501_24760">
<rect width="32" height="32" fill="white"/>
</clipPath>
<clipPath id="clip1_6501_24760">
<rect width="14" height="14" fill="white" transform="translate(18)"/>
</clipPath>
<clipPath id="clip2_6501_24760">
<rect width="14" height="14" fill="white" transform="translate(0 18)"/>
</clipPath>
</defs>
</svg>
