<svg xmlns="http://www.w3.org/2000/svg" width="50" height="50" fill="none"><g clip-path="url(#a)"><path fill="#213147" d="M4.542 15.2v19.6c0 1.26.66 2.4 1.757 3.04l16.956 9.8c1.079.62 2.417.62 3.495 0l16.956-9.8a3.513 3.513 0 0 0 1.758-3.04V15.2c0-1.26-.66-2.4-1.758-3.04L26.75 2.36a3.516 3.516 0 0 0-3.495 0L6.3 12.16a3.494 3.494 0 0 0-1.737 3.04h-.02Z"/><path fill="#12AAFF" d="m28.688 28.8-2.417 6.64c-.06.18-.06.38 0 .58l4.154 11.42 4.813-2.78-5.771-15.86a.416.416 0 0 0-.78 0ZM33.54 17.64a.416.416 0 0 0-.778 0l-2.417 6.64c-.06.18-.06.38 0 .58l6.81 18.7 4.814-2.78-8.428-23.12v-.02Z"/><path fill="#9DCCED" d="M24.993 3.1c.12 0 .24.04.34.1l18.333 10.6c.22.12.34.36.34.6v21.2c0 .24-.14.48-.34.6L25.332 46.8c-.1.06-.22.1-.34.1-.12 0-.239-.04-.339-.1L6.32 36.2a.68.68 0 0 1-.34-.6V14.38c0-.24.14-.48.34-.6l18.334-10.6c.1-.06.22-.1.34-.1v.02Zm0-3.1c-.66 0-1.298.16-1.897.5L4.762 11.1a3.773 3.773 0 0 0-1.898 3.28v21.2c0 1.36.72 2.6 1.898 3.28l18.334 10.6c.579.34 1.238.5 1.897.5s1.298-.16 1.897-.5l18.334-10.6a3.773 3.773 0 0 0 1.897-3.28v-21.2c0-1.36-.719-2.6-1.897-3.28L26.87.5a3.74 3.74 0 0 0-1.897-.5h.02Z"/><path fill="#213147" d="m12.85 43.58 1.698-4.64 3.395 2.82-3.176 2.92-1.917-1.1Z"/><g fill="#fff"><path d="M23.435 12.88h-4.653c-.34 0-.66.22-.78.54L8.038 40.78l4.813 2.78 10.984-30.14c.1-.28-.1-.56-.38-.56l-.019.02ZM31.583 12.88H26.93c-.34 0-.659.22-.779.54L14.767 44.66l4.814 2.78 12.382-34.02c.1-.28-.1-.56-.38-.56v.02Z"/></g></g><defs><clipPath id="a"><path fill="#fff" d="M.028 0h49.93v50H.027z"/></clipPath></defs></svg>