<svg xmlns="http://www.w3.org/2000/svg" width="50" height="50" fill="none"><g clip-path="url(#a)"><path fill="#fff" d="M40.405 8.577H9.606v28.059h30.799V8.577Z"/><path fill="#E84142" fill-rule="evenodd" d="M49.947 25c0 13.789-11.16 24.967-24.925 24.967S.098 38.789.098 25C.098 11.211 11.257.033 25.022.033 38.788.033 49.947 11.211 49.947 25Zm-31.988 9.935h-4.837c-1.016 0-1.518 0-1.825-.196a1.232 1.232 0 0 1-.557-.963c-.018-.362.233-.803.735-1.686l11.944-21.088c.508-.896.765-1.343 1.09-1.509a1.23 1.23 0 0 1 1.114 0c.324.166.581.613 1.09 1.509l2.455 4.293.012.022c.55.96.828 1.448.95 1.96a3.648 3.648 0 0 1 0 1.704c-.123.515-.399 1.006-.956 1.981l-6.273 11.11-.017.028c-.552.968-.832 1.46-1.22 1.83-.423.404-.931.699-1.488.864-.508.142-1.078.142-2.217.142Zm12.216 0h6.93c1.023 0 1.538 0 1.844-.202.33-.214.539-.576.557-.969.018-.35-.228-.774-.71-1.606l-.05-.087-3.471-5.949-.04-.067c-.487-.826-.734-1.244-1.05-1.405a1.217 1.217 0 0 0-1.108 0c-.319.166-.576.601-1.084 1.478l-3.46 5.95-.011.02c-.507.876-.76 1.313-.741 1.672.024.393.226.755.557.97.3.195.814.195 1.837.195Z" clip-rule="evenodd"/></g><defs><clipPath id="a"><path fill="#fff" d="M.081 0h49.882v50H.081z"/></clipPath></defs></svg>