<svg xmlns="http://www.w3.org/2000/svg" width="273" height="67" fill="none"><path stroke="url(#a)" stroke-linecap="round" stroke-width="4" d="m271.001 23.222-1.907 6.276a7.948 7.948 0 0 1-3.026 4.187v0a7.956 7.956 0 0 0-2.438 2.766l-1.621 3.048a4.502 4.502 0 0 1-3.976 2.39v0a4.505 4.505 0 0 1-2.862-1.026l-.136-.112a4.991 4.991 0 0 0-1.742-.928l-4.976-1.49v0a5.017 5.017 0 0 0-5.296 1.77l-3.502 4.528a2.252 2.252 0 0 1-3.705-.208v0a2.25 2.25 0 0 0-2.78-.913l-1.756.723a4.473 4.473 0 0 0-1.396.91l-4.31 4.137a1.6 1.6 0 0 1-2.536-.431v0c-.641-1.266-2.49-1.133-2.944.211l-1.48 4.384-3.587 9.593a1.28 1.28 0 0 1-2.145.414v0a1.271 1.271 0 0 1-.29-.528l-2.08-7.7-2.026-7.34a8.002 8.002 0 0 0-2.628-4.047l-1.287-1.058-4.719-3.531a4.587 4.587 0 0 0-2.747-.914v0c-.771 0-1.529.195-2.205.566l-1.027.563a5.267 5.267 0 0 1-2.534.65v0a5.27 5.27 0 0 1-2.534-.65l-1.797-.987a3.23 3.23 0 0 0-.54-.234v0a3.207 3.207 0 0 0-3.743 1.38l-1.661 2.734a2.193 2.193 0 0 1-.669.694v0a2.196 2.196 0 0 1-3.26-1.054l-.408-1.073a3.116 3.116 0 0 0-4.513-1.567l-1.883 1.127a4.954 4.954 0 0 0-1.459 1.333l-1.499 2.055a6.409 6.409 0 0 1-2.978 2.244l-1.227.449a3.815 3.815 0 0 1-3.408-.397v0a3.816 3.816 0 0 1-1.516-1.965l-1.781-5.276a3.664 3.664 0 0 0-1.914-2.145l-.159-.075a3.42 3.42 0 0 0-3.907.71v0a3.42 3.42 0 0 1-5.057-.168l-.626-.736a4.31 4.31 0 0 1-.939-1.931l-.274-1.356a6.356 6.356 0 0 0-3.172-4.31v0a6.337 6.337 0 0 0-1.375-.556l-4.013-1.1a5.344 5.344 0 0 1-2.843-1.923l-.272-.358a4.44 4.44 0 0 0-3.537-1.755v0a4.437 4.437 0 0 1-1.966-.459l-4.471-2.208-2.022-.739a4.98 4.98 0 0 0-5.07 1.002v0a4.978 4.978 0 0 1-5.754.69l-3.18-1.744a8 8 0 0 0-3.848-.986H92.056a6.153 6.153 0 0 1-4.323-1.775v0a6.154 6.154 0 0 1-1.38-2.068L82.79 6.137a4.628 4.628 0 0 0-.764-1.261l-.395-.465a4.073 4.073 0 0 0-6.023-.2l-.262.27c-.6.616-1.422.963-2.282.963v0c-.535 0-1.062.135-1.53.393l-2.35 1.288a8 8 0 0 1-3.847.986h-4.542c-.906 0-1.715.567-2.026 1.418v0a2.156 2.156 0 0 1-3.48.853l-.698-.638a2.79 2.79 0 0 0-3.655-.095l-1.953 1.607a5.705 5.705 0 0 1-3.624 1.3h-2.423a4.764 4.764 0 0 1-3.416-1.444l-.332-.341a4.222 4.222 0 0 0-5.556-.438l-.962.72a2.856 2.856 0 0 1-3.758-.296l-.046-.048a2.804 2.804 0 0 0-4.407.498v0a2.804 2.804 0 0 1-2.396 1.348H18.67a.972.972 0 0 1-.972-.972v0c0-.983-1.293-1.345-1.803-.505L13.087 15.7a2.484 2.484 0 0 0-.328.886l-3.156 19.08L5.689 50.2 2.334 65"/><defs><linearGradient id="a" x1="2.334" x2="271.001" y1="33" y2="33" gradientUnits="userSpaceOnUse"><stop stop-color="#A855F7"/><stop offset="1" stop-color="#55C1F7"/></linearGradient></defs></svg>