<svg xmlns="http://www.w3.org/2000/svg" width="51" height="50" fill="none"><g clip-path="url(#a)"><path fill="#FF0420" d="M25.375 50c13.905 0 25.178-11.193 25.178-25S39.28 0 25.375 0C11.469 0 .196 11.193.196 25s11.273 25 25.179 25Z"/><path fill="#fff" fill-rule="evenodd" d="M14.347 30.59c.956.7 2.185 1.05 3.686 1.05 1.813 0 3.263-.41 4.34-1.25 1.088-.85 1.844-2.14 2.287-3.85.272-1.05.493-2.14.685-3.25.06-.4.09-.73.09-.99 0-.87-.221-1.62-.665-2.25a3.96 3.96 0 0 0-1.812-1.43c-.766-.33-1.642-.49-2.609-.49-3.565 0-5.78 1.72-6.637 5.16a60.275 60.275 0 0 0-.695 3.25c-.06.4-.09.73-.09 1.01 0 1.31.473 2.33 1.42 3.04Zm5.75-2.27c-.493.41-1.087.62-1.792.62-1.209 0-1.823-.57-1.813-1.73 0-.28.03-.54.08-.79.232-1.22.454-2.24.685-3.08.212-.86.564-1.49 1.058-1.9.503-.41 1.108-.62 1.813-.62 1.198 0 1.792.57 1.792 1.71 0 .28-.03.55-.08.81-.151.88-.373 1.9-.665 3.08-.212.86-.574 1.49-1.078 1.9Zm5.892 3.01c.08.09.181.13.322.13h2.569c.13 0 .251-.04.362-.13.121-.09.181-.2.212-.34l.866-4.11h2.548c1.652 0 2.95-.34 3.898-1.03.966-.69 1.6-1.75 1.913-3.19.07-.34.11-.67.11-.98 0-1.09-.432-1.92-1.288-2.5-.846-.57-1.964-.86-3.364-.86H29.11a.557.557 0 0 0-.362.13c-.121.09-.192.2-.212.34l-2.608 12.2c-.02.13 0 .24.06.34Zm8.39-7.47c-.393.29-.846.43-1.38.43h-2.166l.716-3.36h2.266c.513 0 .886.1 1.097.3.212.19.323.47.323.83 0 .16-.02.35-.06.56-.132.54-.393.95-.796 1.24Z" clip-rule="evenodd"/></g><defs><clipPath id="a"><path fill="#fff" d="M.196 0h50.357v50H.196z"/></clipPath></defs></svg>