<svg xmlns="http://www.w3.org/2000/svg" width="47" height="50" fill="none"><g fill="#E6007A" clip-path="url(#a)"><path d="M23.51 10.487c4.975 0 9.008-2.347 9.008-5.243C32.518 2.348 28.485 0 23.51 0 18.534 0 14.5 2.348 14.5 5.244s4.033 5.243 9.009 5.243ZM23.51 49.996c4.975 0 9.008-2.347 9.008-5.243 0-2.896-4.033-5.244-9.008-5.244-4.976 0-9.009 2.348-9.009 5.244s4.033 5.243 9.009 5.243ZM10.955 17.746c2.488-4.312 2.472-8.983-.036-10.432-2.507-1.449-6.557.872-9.044 5.184-2.488 4.313-2.472 8.983.036 10.432 2.507 1.449 6.557-.872 9.044-5.184ZM45.14 37.498c2.488-4.312 2.474-8.982-.032-10.43-2.506-1.448-6.554.874-9.042 5.186-2.488 4.312-2.473 8.982.033 10.43 2.506 1.448 6.554-.874 9.042-5.186ZM10.92 42.682c2.508-1.449 2.524-6.119.037-10.431-2.488-4.312-6.537-6.633-9.045-5.184-2.508 1.449-2.524 6.12-.036 10.431 2.488 4.312 6.537 6.633 9.045 5.184ZM45.11 22.93c2.505-1.447 2.52-6.117.033-10.429-2.488-4.312-6.536-6.634-9.042-5.186-2.506 1.448-2.52 6.118-.033 10.43 2.488 4.312 6.536 6.634 9.042 5.186Z"/></g><defs><clipPath id="a"><path fill="#fff" d="M.023 0H47v50H.023z"/></clipPath></defs></svg>