<svg xmlns="http://www.w3.org/2000/svg" width="54" height="50" fill="none"><g clip-path="url(#a)"><path fill="#08C" d="M26.925 50c14.728 0 26.667-11.193 26.667-25S41.652 0 26.925 0C12.198 0 .26 11.193.26 25s11.939 25 26.666 25Z"/><path fill="#fff" fill-rule="evenodd" d="M19.497 16.518h14.952c.571 0 1.048.09 1.619.357.667.268 1.048.715 1.238 1.072 0 0 0 .089.095.089.286.446.476.982.476 1.607 0 .536-.095 1.072-.476 1.607L27.973 36.43c-.19.357-.572.535-1.048.535-.38 0-.762-.178-1.047-.535L16.639 21.25c-.19-.357-.571-.803-.571-1.518-.095-.625.095-1.16.38-1.696.287-.536.763-.982 1.43-1.16.57-.358 1.238-.358 1.619-.358Zm6.285 2.143h-6.285c-.381 0-.572 0-.667.09a.722.722 0 0 0-.381.356c-.095.09-.095.268-.095.447 0 .09.095.178.285.536l7.143 11.607V18.66Zm2.286 0v13.125l7.238-11.697c.095-.178.095-.357.095-.535 0-.179 0-.357-.095-.447-.095-.089-.095-.178-.19-.178l-.096-.09c-.19-.089-.38-.089-.666-.089h-6.286v-.09Z" clip-rule="evenodd"/></g><defs><clipPath id="a"><path fill="#fff" d="M.259 0h53.333v50H.259z"/></clipPath></defs></svg>