<svg width="20" height="20" viewBox="0 0 20 20" fill="none" xmlns="http://www.w3.org/2000/svg">
<path d="M10 20C15.5228 20 20 15.5228 20 10C20 4.47715 15.5228 0 10 0C4.47715 0 0 4.47715 0 10C0 15.5228 4.47715 20 10 20Z" fill="url(#paint0_linear_2660_13749)"/>
<path d="M11.8542 15.5439C11.4324 15.547 10.9955 15.5099 10.5607 15.4441C10.3808 15.4127 10.186 15.4323 10.1384 15.6371C10.0646 15.8762 10.0007 16.1183 9.93067 16.3587C9.87573 16.5471 9.81396 16.7802 9.56638 16.7512C9.40086 16.7443 9.30254 16.6802 9.26033 16.5466C9.15564 16.2148 9.01818 15.8976 8.8312 15.6036C8.14765 14.5251 7.10972 13.8384 5.87042 13.5682C5.74947 13.5371 5.69712 13.4255 5.76338 13.3188C6.33752 12.36 5.72966 11.2674 5.15906 10.4662C4.62759 9.65775 3.91646 8.91157 3.76839 7.91902C3.45927 5.0825 7.11986 4.14068 9.34828 4.35047C10.4435 4.38988 10.6229 4.61029 10.6852 3.3761C10.6979 3.23687 10.7722 3.14342 10.8913 3.12808C11.0405 3.10873 11.1464 3.18141 11.195 3.32418C11.4678 4.22375 12.0464 4.96993 12.8054 5.51104C13.3251 5.88744 13.8994 6.14537 14.5269 6.28294C14.6582 6.29474 14.7884 6.40825 14.7004 6.5463C13.7084 8.56963 16.3431 9.96641 16.6688 11.8149C17.1361 14.3902 13.9584 15.5965 11.8542 15.5437V15.5439ZM10.6748 13.0656C11.6458 13.3912 12.6733 13.3167 13.6222 12.9993C15.6803 12.1405 13.0162 8.58615 13.8539 6.69167C12.969 6.65887 11.517 6.36931 10.9655 7.25331C10.7368 7.71183 10.6666 8.23005 10.5383 8.72207C10.4775 8.97363 10.1353 8.92407 10.112 8.68054C10.0802 8.43559 10.0526 8.18993 10.02 7.94521C9.97194 7.58345 9.92384 7.22169 9.87031 6.86087C9.84815 6.71173 9.82127 6.6945 9.67225 6.67208C8.32143 6.52695 5.81053 6.38701 6.0409 8.38792C6.15573 9.97373 7.20427 11.5942 6.57118 13.1739C7.68716 13.1572 9.22661 13.3662 9.76609 12.1231C9.8847 11.8578 9.98255 11.5834 10.0901 11.3132C10.1745 11.056 10.53 11.131 10.5296 11.3906C10.5475 11.9496 10.556 12.5188 10.6746 13.0654L10.6748 13.0656Z" fill="white"/>
<defs>
<linearGradient id="paint0_linear_2660_13749" x1="10" y1="0" x2="10" y2="20" gradientUnits="userSpaceOnUse">
<stop stop-color="#9687FF"/>
<stop offset="1" stop-color="#334AD3"/>
</linearGradient>
</defs>
</svg>
