<svg width="95" height="32" viewBox="0 0 95 32" fill="none" xmlns="http://www.w3.org/2000/svg">
<g clip-path="url(#clip0_2001_38702)">
<path d="M91.4414 0C91.5304 0.257906 91.7086 0.452583 91.8868 0.645597C92.4651 1.26623 93.1584 1.6872 93.9732 1.89519C94.0218 1.90684 94.0688 1.92514 94.1433 1.94844C94.1433 2.01666 94.1449 2.08821 94.1433 2.15809C94.0154 5.7305 93.8987 9.30125 93.8631 12.8753C93.8388 15.3662 93.855 17.8587 93.9489 20.3479C93.9927 21.526 94.0688 22.7024 94.1304 23.8787C94.1336 23.952 94.1304 24.0252 94.1304 24.1267C93.0224 24.2931 92.099 24.8072 91.3798 25.7074C91.1206 25.3679 90.8987 25.0285 90.6266 24.739C90.3576 24.4528 90.0547 24.1899 89.7356 23.9653C89.41 23.7373 89.0439 23.5709 88.6762 23.3646C88.6762 23.2814 88.6665 23.1633 88.6762 23.0485C88.8268 21.4761 88.9208 19.9003 88.9824 18.323C89.1055 15.1798 89.0796 12.0367 88.9564 8.89359C88.8835 7.04832 88.7718 5.20637 88.6794 3.36276C88.6697 3.16309 88.6794 2.96342 88.6794 2.73879C88.7361 2.70718 88.8123 2.66558 88.8868 2.62565C89.9138 2.0699 90.7059 1.27289 91.2275 0.204661C91.2599 0.138104 91.2826 0.0682203 91.3101 0C91.3539 0 91.3976 0 91.4397 0L91.4414 0Z" fill="white"/>
<path d="M8.17398 23.2773C8.36189 20.8113 8.39753 18.3737 8.38781 15.9511C8.36837 15.9294 8.36351 15.9244 8.35865 15.9195C8.35379 15.9145 8.34893 15.9078 8.34245 15.9061C8.30682 15.9011 8.27118 15.8928 8.23554 15.8928C7.26036 15.9244 6.28519 15.9577 5.31001 15.991C5.29057 15.991 5.26951 16.006 5.2193 16.0243C5.23388 17.2805 5.28571 18.5451 5.37157 19.8063C5.45742 21.0626 5.57729 22.3172 5.68421 23.6C5.14316 23.818 4.63776 24.1408 4.17609 24.5368C3.71766 24.9312 3.36938 25.422 3.0292 25.9561C2.65987 25.5318 2.26785 25.1541 1.79808 24.8746C1.32345 24.5917 0.800227 24.457 0.242984 24.3638C0.60746 16.9627 0.351517 9.5783 0 2.1839C0.570203 2.02416 1.09829 1.83614 1.57292 1.50669C2.04917 1.17723 2.41526 0.74628 2.75544 0.230469C3.11506 0.811172 3.44713 1.37025 3.92662 1.81784C4.40611 2.26376 4.91476 2.65977 5.51898 2.94763C5.42502 5.41853 5.29381 7.88111 5.23874 10.3653C6.26899 10.4053 7.26684 10.4335 8.2971 10.4652C8.21934 8.04085 8.10433 5.65148 7.99417 3.26876C9.95911 2.53831 9.50878 2.78789 10.7739 1.54995C11.4122 2.64979 12.3404 3.39688 13.497 3.86777C13.497 3.96594 13.5002 4.05413 13.497 4.14065C13.4224 5.59158 13.3366 7.04251 13.2734 8.4951C13.1487 11.3404 13.1066 14.1873 13.2329 17.0343C13.2799 18.0942 13.3398 19.1524 13.4143 20.209C13.4629 20.9045 13.5488 21.595 13.6184 22.2889C13.6298 22.3987 13.6363 22.5085 13.6476 22.6433C13.113 22.8513 12.5947 23.0892 12.133 23.4403C11.6762 23.7881 11.3069 24.2207 10.957 24.6999C10.5601 24.3155 10.1729 23.9511 9.68858 23.7199C9.21395 23.4936 8.71179 23.3588 8.17722 23.2773H8.17398Z" fill="white"/>
<path d="M85.6274 3.15827C85.6274 3.26809 85.6306 3.34962 85.6274 3.42949C85.5853 4.58591 85.5432 5.74066 85.4978 6.89707C85.3666 10.2981 85.3164 13.7025 85.365 17.1051C85.3909 18.9737 85.4735 20.8406 85.6112 22.7042C85.6193 22.8124 85.6112 22.9238 85.6112 23.0303C83.7418 23.5561 84.0836 23.423 82.859 24.423C82.177 23.4563 81.278 22.794 80.136 22.4679C80.1651 22.1934 80.1959 21.9305 80.2218 21.6659C80.2574 21.3048 80.2866 20.9421 80.3255 20.581C80.3401 20.4413 80.3125 20.3215 80.2364 20.2033C79.7294 19.4196 79.2401 18.621 78.7153 17.8506C77.9572 16.7391 77.1732 15.6476 76.3989 14.5477C76.3713 14.5094 76.3341 14.4778 76.2968 14.4362C76.2304 14.6792 76.2369 16.5677 76.3227 18.2649C76.3859 19.5361 76.4718 20.8073 76.5495 22.1069C75.5371 22.2633 74.5959 22.6227 73.8216 23.408C73.6612 23.2366 73.5219 23.0719 73.3648 22.9238C73.206 22.7741 73.0376 22.631 72.861 22.5029C72.6844 22.3747 72.4965 22.2599 72.307 22.1568C72.1159 22.0519 71.9182 21.9604 71.7174 21.8772C71.5181 21.7957 71.3108 21.7341 71.0888 21.6576C71.1099 21.4396 71.1326 21.2283 71.1504 21.0153C71.2039 20.403 71.2654 19.7907 71.3075 19.1767C71.5084 16.2216 71.5035 13.2632 71.3901 10.3048C71.3205 8.50441 71.1958 6.70739 71.0953 4.9087C71.0905 4.83549 71.0888 4.76228 71.084 4.67243C71.6347 4.4661 72.1547 4.21153 72.6277 3.86876C73.0959 3.52932 73.4782 3.10004 73.8119 2.58922C74.5473 3.49771 75.4998 3.95362 76.5851 4.17991C76.5657 4.65912 76.5463 5.11669 76.5268 5.59257C77.7952 7.3247 79.0976 9.04351 80.4146 10.7507C80.4308 10.7474 80.4486 10.7424 80.4648 10.739C80.4664 10.6642 80.4729 10.5876 80.4713 10.5127C80.4389 9.66082 80.4113 8.8089 80.3708 7.95698C80.3255 6.99358 80.2688 6.03184 80.2153 5.0701C80.1943 4.70072 80.1651 4.32966 80.1408 3.96028C80.1376 3.91702 80.1408 3.87375 80.1408 3.80553C81.2926 3.31967 82.2402 2.57757 82.8639 1.39453C83.2267 1.86209 83.6074 2.25976 84.0869 2.54263C84.5664 2.82549 85.0815 3.01351 85.6274 3.15994V3.15827Z" fill="white"/>
<path d="M15.8066 4.18231C18.0437 4.45353 20.1674 4.22391 22.1437 3.0625C22.2036 3.10243 22.2652 3.13904 22.3202 3.18397C23.3537 4.01426 24.533 4.51343 25.8046 4.80794C26.6178 4.99596 27.4423 5.09413 28.2717 5.16069C28.3284 5.16568 28.3851 5.17234 28.4677 5.17899C28.471 5.26052 28.4791 5.33873 28.4758 5.41693C28.4386 6.23225 28.3932 7.0459 28.3608 7.86121C28.275 10.0692 28.2199 12.2789 28.2782 14.4902C28.3138 15.7947 28.356 17.0992 28.4175 18.4037C28.4612 19.3139 28.5439 20.2224 28.6103 21.1325C28.6151 21.2058 28.62 21.2773 28.6265 21.3705C28.3689 21.3971 28.1276 21.4221 27.8846 21.447C26.8819 21.5485 25.8953 21.7415 24.9396 22.0677C24.0065 22.3855 23.1415 22.838 22.3656 23.4637C22.3429 23.482 22.317 23.4936 22.283 23.5136C20.2905 22.3805 18.1344 22.1958 15.8893 22.3905C15.9281 21.3655 15.9702 20.3622 16.001 19.3572C16.0318 18.3488 16.0561 17.3405 16.0674 16.3322C16.0804 15.3155 16.0804 14.3005 16.0755 13.2839C16.0691 12.2756 16.0545 11.2672 16.0318 10.2589C16.0091 9.25057 15.98 8.24225 15.9427 7.23392C15.9055 6.22725 15.8569 5.22225 15.8099 4.18065L15.8066 4.18231ZM23.9174 12.8646C23.8948 12.5501 23.864 12.0027 23.8122 11.4569C23.7636 10.9478 23.6745 10.4436 23.5173 9.95607C23.4234 9.66655 23.3067 9.38701 23.1172 9.14741C22.918 8.89616 22.6669 8.76139 22.3461 8.77137C22.2247 8.7747 22.1015 8.76804 21.9784 8.75639C21.6464 8.72644 21.3839 8.85456 21.1928 9.12911C21.1134 9.24225 21.047 9.36871 20.9887 9.49517C20.7732 9.95441 20.6777 10.4486 20.6064 10.9494C20.4169 12.2872 20.425 13.625 20.6129 14.9611C20.6906 15.5119 20.7894 16.061 21.0454 16.5601C21.1312 16.7282 21.2414 16.8912 21.3694 17.0277C21.5605 17.2323 21.8067 17.3022 22.0837 17.2506C22.1809 17.2323 22.2846 17.2323 22.3834 17.2407C22.6539 17.264 22.8872 17.1791 23.067 16.9761C23.1772 16.8513 23.2889 16.7132 23.3505 16.5601C23.4736 16.254 23.5902 15.9395 23.6647 15.6167C23.8543 14.7897 23.898 13.9461 23.9191 12.8646H23.9174Z" fill="white"/>
<path d="M46.2884 5.28286C46.3581 5.27953 46.4229 5.27287 46.4861 5.27287C47.9472 5.27953 49.4035 5.20133 50.8549 5.02828C51.5661 4.94342 52.2739 4.83028 52.9511 4.58402C53.241 4.47753 53.518 4.32944 53.842 4.17969C53.8663 4.193 53.936 4.22628 54.004 4.26455C54.9792 4.80033 55.9803 5.28119 57.0332 5.63727C57.618 5.83528 58.2109 5.99501 58.8216 6.07654C58.9576 6.09485 59.0953 6.1015 59.2314 6.11315C59.301 6.1198 59.3707 6.1248 59.4598 6.13312C59.3124 7.2679 59.2557 8.38272 59.314 9.50253C59.3723 10.619 59.5424 11.7139 59.9458 12.7638C59.28 15.1665 59.0289 17.6191 59.0856 20.1282C58.1282 20.248 57.2357 20.5359 56.3545 20.8737C55.4797 21.2098 54.6552 21.654 53.8339 22.0817C51.4413 20.8487 48.9256 20.6141 46.2998 21.0018C46.2998 20.9286 46.2965 20.8587 46.2998 20.7872C46.3856 19.3412 46.3727 17.8969 46.2431 16.4543C46.141 15.3079 45.9531 14.1764 45.6729 13.0616C45.6502 12.9684 45.6275 12.8753 45.6113 12.8054C45.7523 12.4144 45.9013 12.0516 46.0147 11.6773C46.3403 10.614 46.4602 9.51917 46.478 8.40934C46.4926 7.44261 46.4213 6.48254 46.2884 5.52745C46.2803 5.46922 46.2722 5.41098 46.2674 5.35108C46.2674 5.33777 46.2755 5.32279 46.2868 5.28286H46.2884ZM51.2939 15.847C51.6892 15.9818 52.1832 16.0051 52.5428 15.9751C53.2961 15.9086 53.9133 15.5791 54.362 14.9485C54.8447 14.2696 55.0909 13.4942 55.1136 12.6656C55.1379 11.8004 54.882 10.9984 54.4057 10.2796C54.0413 9.73048 53.5488 9.36276 52.9089 9.22133C52.4133 9.11151 51.9176 9.13314 51.4251 9.24629C51.3781 9.25627 51.3344 9.28123 51.2923 9.2962V15.8487L51.2939 15.847Z" fill="white"/>
<path d="M38.9168 5.70408C39.9147 5.43952 40.7797 4.9653 41.4261 4.09508C42.0724 4.96364 42.9115 5.49775 43.9094 5.78561C43.9142 5.84884 43.9223 5.89875 43.9191 5.94867C43.8332 7.22822 43.7441 8.50776 43.6566 9.78731C43.6275 10.2016 43.6 10.6159 43.5708 11.0302C43.5254 11.6742 43.4606 12.3164 43.4363 12.9604C43.4072 13.7158 43.3975 14.4729 43.4088 15.2283C43.4347 16.8007 43.5578 18.3681 43.7117 19.9321C43.736 20.1751 43.7587 20.4163 43.783 20.6859C43.6907 20.6942 43.6145 20.7042 43.5384 20.7075C42.7657 20.7358 41.993 20.7741 41.2284 20.9039C39.9131 21.1252 38.656 21.5212 37.5043 22.23C37.4735 22.2483 37.4411 22.2633 37.3925 22.2899C35.4098 21.1967 33.2505 21.012 31.0296 21.0985C31.0296 20.9871 31.0247 20.8989 31.0296 20.814C31.0928 19.8307 31.1689 18.8473 31.2207 17.8622C31.3293 15.7657 31.3552 13.6675 31.1883 11.571C31.1057 10.5444 31.0539 9.51442 30.9907 8.48613C30.934 7.56932 30.8806 6.65084 30.8271 5.73236C30.8206 5.63086 30.8271 5.5277 30.8271 5.39958C31.8282 5.15832 32.6722 4.65082 33.3153 3.76562C33.9632 4.66913 34.7699 5.32304 35.8293 5.63087C35.8293 5.7307 35.8309 5.81889 35.8293 5.90541C35.7807 8.10676 35.7419 10.3098 35.6754 12.5111C35.6479 13.4379 35.7338 14.3481 35.9735 15.2383C36.048 15.5128 36.1695 15.7824 36.3121 16.0286C36.5275 16.403 36.8563 16.591 37.297 16.5278C37.3958 16.5145 37.4994 16.5245 37.5999 16.5311C37.9125 16.5494 38.1636 16.423 38.3628 16.185C38.5491 15.9621 38.6722 15.7025 38.7613 15.4263C38.933 14.8955 39.0027 14.3447 39.0578 13.789C39.1242 13.1085 39.108 12.4263 39.0869 11.7441C39.0432 10.3647 39.0076 8.98697 38.9671 7.60759C38.9509 7.06682 38.9347 6.52605 38.9185 5.98361C38.9152 5.89543 38.9185 5.80724 38.9185 5.70408H38.9168Z" fill="white"/>
<path d="M62.793 5.22215C64.8454 4.38188 64.7255 4.26374 65.5257 3.41016C66.2628 4.23213 67.2169 4.63812 68.2698 4.86608C68.2698 5.02914 68.2763 5.18388 68.2698 5.33696C68.2164 6.31367 68.1564 7.29039 68.1062 8.26877C67.9961 10.4685 67.9345 12.6698 67.954 14.8728C67.9621 15.8146 67.9783 16.7564 68.0171 17.6965C68.0657 18.8812 68.1273 20.0659 68.2698 21.2439C68.2779 21.3155 68.2763 21.3903 68.2812 21.4902C67.2525 21.6166 66.3373 22.006 65.5225 22.7015C65.1499 22.3155 64.7482 21.971 64.2784 21.7198C63.8135 21.4719 63.3227 21.3071 62.8075 21.1957C62.8075 21.1291 62.8027 21.0792 62.8075 21.0293C63.1882 17.6915 63.2222 14.342 63.0959 10.9893C63.0262 9.13733 62.8966 7.28872 62.7946 5.4368C62.7913 5.37024 62.7946 5.30368 62.7946 5.22382L62.793 5.22215Z" fill="white"/>
<path d="M37.318 24.8906H38.9363C39.4385 26.4963 39.9423 28.1036 40.446 29.7126H40.5044C41.0292 28.1086 41.5524 26.5046 42.0789 24.8956H43.5303C44.0406 26.5179 44.5476 28.1352 45.0563 29.7542H45.1081C45.3819 28.9522 45.6281 28.1386 45.8905 27.3316C46.1529 26.5246 46.4072 25.7143 46.6681 24.8989H48.16C47.4262 27.2234 46.6875 29.5329 45.9488 31.8524H44.2609C43.7733 30.31 43.2825 28.7625 42.7933 27.2151C42.7754 27.2151 42.7576 27.2151 42.7398 27.2134C42.2231 28.7559 41.7339 30.3066 41.2171 31.8557H39.5421C38.8035 29.5462 38.0648 27.2334 37.3164 24.8923L37.318 24.8906Z" fill="white"/>
<path d="M58.2362 24.891C58.2848 24.8876 58.3204 24.8843 58.356 24.8843C59.3231 24.8843 60.2918 24.8793 61.2589 24.8876C61.7157 24.891 62.1644 24.9675 62.5921 25.1422C63.585 25.5465 64.1326 26.4084 64.0888 27.5049C64.0451 28.6297 63.449 29.4268 62.3912 29.7662C62.0024 29.891 61.6023 29.9459 61.1957 29.9476C60.7907 29.9492 60.3874 29.9476 59.9824 29.9476C59.9192 29.9476 59.8561 29.9526 59.7718 29.9575V31.8444H58.2459C58.1989 31.698 58.1843 25.1988 58.2345 24.891H58.2362ZM59.7848 26.2121V28.6331C59.835 28.6397 59.869 28.6481 59.9047 28.6481C60.3015 28.6481 60.6984 28.6614 61.0937 28.6414C61.3285 28.6297 61.5667 28.5865 61.7934 28.5199C62.0494 28.4451 62.2503 28.272 62.3782 28.0241C62.7573 27.2836 62.3879 26.445 61.5958 26.2537C61.5051 26.2321 61.4112 26.2121 61.3188 26.2104C60.8426 26.2021 60.3679 26.1988 59.8917 26.1955C59.8577 26.1955 59.822 26.2071 59.7848 26.2154V26.2121Z" fill="white"/>
<path d="M50.4955 31.8569H48.9468C48.9468 31.8569 48.9339 31.8452 48.9323 31.8386C48.929 31.8319 48.9258 31.8236 48.9258 31.817C48.9306 31.7953 48.9355 31.7737 48.9436 31.7537C49.9334 29.4725 50.9215 27.1896 51.9161 24.8984H53.4728C54.4739 27.2013 55.4799 29.5124 56.4955 31.8486H54.8595C54.6618 31.3644 54.4626 30.8752 54.2617 30.381H51.1013C50.902 30.8652 50.6996 31.361 50.4971 31.8569H50.4955ZM52.7147 26.5357L52.658 26.5307C52.3114 27.3943 51.9631 28.2595 51.6148 29.1281C51.8756 29.1763 53.583 29.1664 53.7531 29.1164C53.4064 28.2545 53.0614 27.396 52.7163 26.5357H52.7147Z" fill="white"/>
<path d="M30.1973 31.1893C30.3755 30.7816 30.5472 30.3923 30.714 30.0146C30.9991 30.1593 31.2567 30.3107 31.5288 30.4206C32.1638 30.6785 32.8231 30.7883 33.5019 30.6652C33.6833 30.6319 33.8712 30.5703 34.0267 30.4738C34.422 30.2292 34.4268 29.7201 34.0348 29.4721C33.8355 29.3473 33.6039 29.2625 33.3771 29.1959C32.9268 29.0628 32.4667 28.9646 32.0164 28.8349C31.7961 28.7716 31.5807 28.6784 31.3701 28.5819C29.951 27.9297 30.1163 26.1011 31.051 25.3806C31.3992 25.1127 31.7864 24.9396 32.2092 24.8548C33.1811 24.6601 34.1352 24.7333 35.0618 25.1027C35.2351 25.1709 35.3971 25.2658 35.5818 25.3573C35.4182 25.7766 35.2627 26.1709 35.1023 26.5803C35.0116 26.5353 34.9403 26.5037 34.8707 26.4688C34.2988 26.1743 33.6979 26.0129 33.0548 26.0378C32.794 26.0478 32.538 26.0877 32.2999 26.2092C32.1023 26.309 31.9597 26.4588 31.9014 26.6818C31.8366 26.9313 31.9046 27.1643 32.1217 27.3057C32.2837 27.4122 32.4651 27.5004 32.6498 27.5536C33.1001 27.6851 33.5618 27.7816 34.0121 27.913C34.3086 28.0012 34.605 28.1044 34.8836 28.2392C36.199 28.8798 36.0483 30.4688 35.3453 31.1776C34.9484 31.577 34.4657 31.7933 33.9327 31.9014C32.8992 32.1094 31.8933 31.983 30.9133 31.6003C30.6638 31.5021 30.4273 31.3773 30.1973 31.1909V31.1893Z" fill="white"/>
</g>
<defs>
<clipPath id="clip0_2001_38702">
<rect width="94.1437" height="32" fill="white"/>
</clipPath>
</defs>
</svg>
